<svg xmlns="http://www.w3.org/2000/svg" xmlns:xlink="http://www.w3.org/1999/xlink" width="1280" zoomAndPan="magnify" viewBox="0 0 960 299.999988" height="400" preserveAspectRatio="xMidYMid meet" version="1.2"><defs><filter x="0%" y="0%" width="100%" filterUnits="objectBoundingBox" id="57d19f8be6" height="100%"><feColorMatrix values="0 0 0 0 1 0 0 0 0 1 0 0 0 0 1 0 0 0 1 0" type="matrix" in="SourceGraphic"/></filter><clipPath id="c6bb882568"><path d="M 1.417969 82 L 137 82 L 137 218 L 1.417969 218 Z M 1.417969 82 "/></clipPath><clipPath id="113fa675e1"><path d="M 156.65625 229.246094 L 227.335938 229.246094 L 227.335938 299.65625 L 156.65625 299.65625 Z M 156.65625 229.246094 "/></clipPath><clipPath id="588d2dcadf"><path d="M 183 110.695312 L 317.886719 110.695312 L 317.886719 245.703125 L 183 245.703125 Z M 183 110.695312 "/></clipPath><clipPath id="49163be7d5"><rect x="0" width="319" y="0" height="300"/></clipPath><linearGradient x1="-0.0000119552" gradientTransform="matrix(1,0,0,1,0.0000119552,-0.00000209404)" y1="122.690002" x2="801.224676" gradientUnits="userSpaceOnUse" y2="122.690002" id="a64b2d2a15"><stop style="stop-color:#fe5757;stop-opacity:1;" offset="0"/><stop style="stop-color:#fd5757;stop-opacity:1;" offset="0.00390625"/><stop style="stop-color:#fc5656;stop-opacity:1;" offset="0.0078125"/><stop style="stop-color:#fb5656;stop-opacity:1;" offset="0.0117187"/><stop style="stop-color:#fa5656;stop-opacity:1;" offset="0.015625"/><stop style="stop-color:#f95555;stop-opacity:1;" offset="0.0195312"/><stop style="stop-color:#f85555;stop-opacity:1;" offset="0.0234375"/><stop style="stop-color:#f75555;stop-opacity:1;" offset="0.0273438"/><stop style="stop-color:#f65454;stop-opacity:1;" offset="0.03125"/><stop style="stop-color:#f55454;stop-opacity:1;" offset="0.0351562"/><stop style="stop-color:#f45454;stop-opacity:1;" offset="0.0390625"/><stop style="stop-color:#f35353;stop-opacity:1;" offset="0.0429688"/><stop style="stop-color:#f25353;stop-opacity:1;" offset="0.046875"/><stop style="stop-color:#f15353;stop-opacity:1;" offset="0.0507812"/><stop style="stop-color:#f05252;stop-opacity:1;" offset="0.0546875"/><stop style="stop-color:#ef5252;stop-opacity:1;" offset="0.0585937"/><stop style="stop-color:#ee5252;stop-opacity:1;" offset="0.0625"/><stop style="stop-color:#ed5151;stop-opacity:1;" offset="0.0664062"/><stop style="stop-color:#ec5151;stop-opacity:1;" offset="0.0703125"/><stop style="stop-color:#eb5151;stop-opacity:1;" offset="0.0742188"/><stop style="stop-color:#ea5050;stop-opacity:1;" offset="0.078125"/><stop style="stop-color:#e95050;stop-opacity:1;" offset="0.0820312"/><stop style="stop-color:#e84f4f;stop-opacity:1;" offset="0.0859375"/><stop style="stop-color:#e74f4f;stop-opacity:1;" offset="0.0898438"/><stop style="stop-color:#e64f4f;stop-opacity:1;" offset="0.09375"/><stop style="stop-color:#e54e4e;stop-opacity:1;" offset="0.0976562"/><stop style="stop-color:#e44e4e;stop-opacity:1;" offset="0.101562"/><stop style="stop-color:#e34e4e;stop-opacity:1;" offset="0.105469"/><stop style="stop-color:#e24d4d;stop-opacity:1;" offset="0.109375"/><stop style="stop-color:#e14d4d;stop-opacity:1;" offset="0.113281"/><stop style="stop-color:#e04d4d;stop-opacity:1;" offset="0.117187"/><stop style="stop-color:#df4c4c;stop-opacity:1;" offset="0.121094"/><stop style="stop-color:#de4c4c;stop-opacity:1;" offset="0.125"/><stop style="stop-color:#dd4c4c;stop-opacity:1;" offset="0.128906"/><stop style="stop-color:#dc4b4b;stop-opacity:1;" offset="0.132812"/><stop style="stop-color:#db4b4b;stop-opacity:1;" offset="0.136719"/><stop style="stop-color:#da4b4b;stop-opacity:1;" offset="0.140625"/><stop style="stop-color:#d94a4a;stop-opacity:1;" offset="0.144531"/><stop style="stop-color:#d84a4a;stop-opacity:1;" offset="0.148438"/><stop style="stop-color:#d74a4a;stop-opacity:1;" offset="0.152344"/><stop style="stop-color:#d64949;stop-opacity:1;" offset="0.15625"/><stop style="stop-color:#d54949;stop-opacity:1;" offset="0.160156"/><stop style="stop-color:#d44949;stop-opacity:1;" offset="0.164063"/><stop style="stop-color:#d34848;stop-opacity:1;" offset="0.167969"/><stop style="stop-color:#d24848;stop-opacity:1;" offset="0.171875"/><stop style="stop-color:#d14848;stop-opacity:1;" offset="0.175781"/><stop style="stop-color:#d04747;stop-opacity:1;" offset="0.179688"/><stop style="stop-color:#cf4747;stop-opacity:1;" offset="0.183594"/><stop style="stop-color:#ce4747;stop-opacity:1;" offset="0.1875"/><stop style="stop-color:#cd4646;stop-opacity:1;" offset="0.191406"/><stop style="stop-color:#cc4646;stop-opacity:1;" offset="0.195312"/><stop style="stop-color:#cb4646;stop-opacity:1;" offset="0.199219"/><stop style="stop-color:#ca4545;stop-opacity:1;" offset="0.203125"/><stop style="stop-color:#c94545;stop-opacity:1;" offset="0.207031"/><stop style="stop-color:#c84545;stop-opacity:1;" offset="0.210938"/><stop style="stop-color:#c74444;stop-opacity:1;" offset="0.214844"/><stop style="stop-color:#c64444;stop-opacity:1;" offset="0.21875"/><stop style="stop-color:#c54444;stop-opacity:1;" offset="0.222656"/><stop style="stop-color:#c44343;stop-opacity:1;" offset="0.226562"/><stop style="stop-color:#c44343;stop-opacity:1;" offset="0.230469"/><stop style="stop-color:#c34343;stop-opacity:1;" offset="0.234375"/><stop style="stop-color:#c24242;stop-opacity:1;" offset="0.238281"/><stop style="stop-color:#c14242;stop-opacity:1;" offset="0.242188"/><stop style="stop-color:#c04242;stop-opacity:1;" offset="0.246094"/><stop style="stop-color:#bf4141;stop-opacity:1;" offset="0.25"/><stop style="stop-color:#be4141;stop-opacity:1;" offset="0.253906"/><stop style="stop-color:#bd4141;stop-opacity:1;" offset="0.257812"/><stop style="stop-color:#bc4040;stop-opacity:1;" offset="0.261719"/><stop style="stop-color:#bb4040;stop-opacity:1;" offset="0.265625"/><stop style="stop-color:#ba4040;stop-opacity:1;" offset="0.269531"/><stop style="stop-color:#b93f3f;stop-opacity:1;" offset="0.273438"/><stop style="stop-color:#b83f3f;stop-opacity:1;" offset="0.277344"/><stop style="stop-color:#b73f3f;stop-opacity:1;" offset="0.28125"/><stop style="stop-color:#b63e3e;stop-opacity:1;" offset="0.285156"/><stop style="stop-color:#b53e3e;stop-opacity:1;" offset="0.289062"/><stop style="stop-color:#b43e3e;stop-opacity:1;" offset="0.292969"/><stop style="stop-color:#b33d3d;stop-opacity:1;" offset="0.296875"/><stop style="stop-color:#b23d3d;stop-opacity:1;" offset="0.300781"/><stop style="stop-color:#b13c3c;stop-opacity:1;" offset="0.304688"/><stop style="stop-color:#b03c3c;stop-opacity:1;" offset="0.308594"/><stop style="stop-color:#af3c3c;stop-opacity:1;" offset="0.3125"/><stop style="stop-color:#ae3b3b;stop-opacity:1;" offset="0.316406"/><stop style="stop-color:#ad3b3b;stop-opacity:1;" offset="0.320312"/><stop style="stop-color:#ac3b3b;stop-opacity:1;" offset="0.324219"/><stop style="stop-color:#ab3a3a;stop-opacity:1;" offset="0.328125"/><stop style="stop-color:#aa3a3a;stop-opacity:1;" offset="0.332031"/><stop style="stop-color:#a93a3a;stop-opacity:1;" offset="0.335937"/><stop style="stop-color:#a83939;stop-opacity:1;" offset="0.339844"/><stop style="stop-color:#a73939;stop-opacity:1;" offset="0.34375"/><stop style="stop-color:#a63939;stop-opacity:1;" offset="0.347656"/><stop style="stop-color:#a53838;stop-opacity:1;" offset="0.351562"/><stop style="stop-color:#a43838;stop-opacity:1;" offset="0.355469"/><stop style="stop-color:#a33838;stop-opacity:1;" offset="0.359375"/><stop style="stop-color:#a23737;stop-opacity:1;" offset="0.363281"/><stop style="stop-color:#a13737;stop-opacity:1;" offset="0.367188"/><stop style="stop-color:#a03737;stop-opacity:1;" offset="0.371094"/><stop style="stop-color:#9f3636;stop-opacity:1;" offset="0.375"/><stop style="stop-color:#9e3636;stop-opacity:1;" offset="0.378906"/><stop style="stop-color:#9d3636;stop-opacity:1;" offset="0.382812"/><stop style="stop-color:#9c3535;stop-opacity:1;" offset="0.386719"/><stop style="stop-color:#9b3535;stop-opacity:1;" offset="0.390625"/><stop style="stop-color:#9a3535;stop-opacity:1;" offset="0.394531"/><stop style="stop-color:#993434;stop-opacity:1;" offset="0.398437"/><stop style="stop-color:#983434;stop-opacity:1;" offset="0.402344"/><stop style="stop-color:#973434;stop-opacity:1;" offset="0.40625"/><stop style="stop-color:#963333;stop-opacity:1;" offset="0.410156"/><stop style="stop-color:#953333;stop-opacity:1;" offset="0.414062"/><stop style="stop-color:#943333;stop-opacity:1;" offset="0.417969"/><stop style="stop-color:#933232;stop-opacity:1;" offset="0.421875"/><stop style="stop-color:#923232;stop-opacity:1;" offset="0.425781"/><stop style="stop-color:#913232;stop-opacity:1;" offset="0.429687"/><stop style="stop-color:#903131;stop-opacity:1;" offset="0.433594"/><stop style="stop-color:#8f3131;stop-opacity:1;" offset="0.4375"/><stop style="stop-color:#8e3131;stop-opacity:1;" offset="0.441406"/><stop style="stop-color:#8d3030;stop-opacity:1;" offset="0.445312"/><stop style="stop-color:#8c3030;stop-opacity:1;" offset="0.449219"/><stop style="stop-color:#8b3030;stop-opacity:1;" offset="0.453125"/><stop style="stop-color:#8a2f2f;stop-opacity:1;" offset="0.457031"/><stop style="stop-color:#892f2f;stop-opacity:1;" offset="0.460938"/><stop style="stop-color:#882f2f;stop-opacity:1;" offset="0.464844"/><stop style="stop-color:#872e2e;stop-opacity:1;" offset="0.46875"/><stop style="stop-color:#862e2e;stop-opacity:1;" offset="0.472656"/><stop style="stop-color:#852e2e;stop-opacity:1;" offset="0.476562"/><stop style="stop-color:#842d2d;stop-opacity:1;" offset="0.480469"/><stop style="stop-color:#832d2d;stop-opacity:1;" offset="0.484375"/><stop style="stop-color:#822d2d;stop-opacity:1;" offset="0.488281"/><stop style="stop-color:#812c2c;stop-opacity:1;" offset="0.492187"/><stop style="stop-color:#802c2c;stop-opacity:1;" offset="0.496094"/><stop style="stop-color:#7f2c2c;stop-opacity:1;" offset="0.5"/><stop style="stop-color:#7e2b2b;stop-opacity:1;" offset="0.503906"/><stop style="stop-color:#7d2b2b;stop-opacity:1;" offset="0.507812"/><stop style="stop-color:#7c2b2b;stop-opacity:1;" offset="0.511719"/><stop style="stop-color:#7b2a2a;stop-opacity:1;" offset="0.515625"/><stop style="stop-color:#7a2a2a;stop-opacity:1;" offset="0.519531"/><stop style="stop-color:#792929;stop-opacity:1;" offset="0.523438"/><stop style="stop-color:#782929;stop-opacity:1;" offset="0.527344"/><stop style="stop-color:#772929;stop-opacity:1;" offset="0.53125"/><stop style="stop-color:#762828;stop-opacity:1;" offset="0.535156"/><stop style="stop-color:#752828;stop-opacity:1;" offset="0.539063"/><stop style="stop-color:#742828;stop-opacity:1;" offset="0.542969"/><stop style="stop-color:#732727;stop-opacity:1;" offset="0.546875"/><stop style="stop-color:#722727;stop-opacity:1;" offset="0.550781"/><stop style="stop-color:#712727;stop-opacity:1;" offset="0.554688"/><stop style="stop-color:#702626;stop-opacity:1;" offset="0.558594"/><stop style="stop-color:#6f2626;stop-opacity:1;" offset="0.5625"/><stop style="stop-color:#6e2626;stop-opacity:1;" offset="0.566406"/><stop style="stop-color:#6d2525;stop-opacity:1;" offset="0.570312"/><stop style="stop-color:#6c2525;stop-opacity:1;" offset="0.574219"/><stop style="stop-color:#6b2525;stop-opacity:1;" offset="0.578125"/><stop style="stop-color:#6a2424;stop-opacity:1;" offset="0.582031"/><stop style="stop-color:#692424;stop-opacity:1;" offset="0.585938"/><stop style="stop-color:#682424;stop-opacity:1;" offset="0.589844"/><stop style="stop-color:#672323;stop-opacity:1;" offset="0.59375"/><stop style="stop-color:#662323;stop-opacity:1;" offset="0.597656"/><stop style="stop-color:#652323;stop-opacity:1;" offset="0.601562"/><stop style="stop-color:#642222;stop-opacity:1;" offset="0.605469"/><stop style="stop-color:#632222;stop-opacity:1;" offset="0.609375"/><stop style="stop-color:#622222;stop-opacity:1;" offset="0.613281"/><stop style="stop-color:#612121;stop-opacity:1;" offset="0.617188"/><stop style="stop-color:#602121;stop-opacity:1;" offset="0.621094"/><stop style="stop-color:#5f2121;stop-opacity:1;" offset="0.625"/><stop style="stop-color:#5e2020;stop-opacity:1;" offset="0.628906"/><stop style="stop-color:#5d2020;stop-opacity:1;" offset="0.632813"/><stop style="stop-color:#5c2020;stop-opacity:1;" offset="0.636719"/><stop style="stop-color:#5b1f1f;stop-opacity:1;" offset="0.640625"/><stop style="stop-color:#5a1f1f;stop-opacity:1;" offset="0.644531"/><stop style="stop-color:#591f1f;stop-opacity:1;" offset="0.648438"/><stop style="stop-color:#581e1e;stop-opacity:1;" offset="0.652344"/><stop style="stop-color:#571e1e;stop-opacity:1;" offset="0.65625"/><stop style="stop-color:#561e1e;stop-opacity:1;" offset="0.660156"/><stop style="stop-color:#561d1d;stop-opacity:1;" offset="0.664062"/><stop style="stop-color:#551d1d;stop-opacity:1;" offset="0.667969"/><stop style="stop-color:#541d1d;stop-opacity:1;" offset="0.671875"/><stop style="stop-color:#531c1c;stop-opacity:1;" offset="0.675781"/><stop style="stop-color:#521c1c;stop-opacity:1;" offset="0.679688"/><stop style="stop-color:#511c1c;stop-opacity:1;" offset="0.683594"/><stop style="stop-color:#501b1b;stop-opacity:1;" offset="0.6875"/><stop style="stop-color:#4f1b1b;stop-opacity:1;" offset="0.691406"/><stop style="stop-color:#4e1b1b;stop-opacity:1;" offset="0.695312"/><stop style="stop-color:#4d1a1a;stop-opacity:1;" offset="0.699219"/><stop style="stop-color:#4c1a1a;stop-opacity:1;" offset="0.703125"/><stop style="stop-color:#4b1a1a;stop-opacity:1;" offset="0.707031"/><stop style="stop-color:#4a1919;stop-opacity:1;" offset="0.710938"/><stop style="stop-color:#491919;stop-opacity:1;" offset="0.714844"/><stop style="stop-color:#481919;stop-opacity:1;" offset="0.71875"/><stop style="stop-color:#471818;stop-opacity:1;" offset="0.722656"/><stop style="stop-color:#461818;stop-opacity:1;" offset="0.726563"/><stop style="stop-color:#451818;stop-opacity:1;" offset="0.730469"/><stop style="stop-color:#441717;stop-opacity:1;" offset="0.734375"/><stop style="stop-color:#431717;stop-opacity:1;" offset="0.738281"/><stop style="stop-color:#421616;stop-opacity:1;" offset="0.742188"/><stop style="stop-color:#411616;stop-opacity:1;" offset="0.746094"/><stop style="stop-color:#401616;stop-opacity:1;" offset="0.75"/><stop style="stop-color:#3f1515;stop-opacity:1;" offset="0.753906"/><stop style="stop-color:#3e1515;stop-opacity:1;" offset="0.757812"/><stop style="stop-color:#3d1515;stop-opacity:1;" offset="0.761719"/><stop style="stop-color:#3c1414;stop-opacity:1;" offset="0.765625"/><stop style="stop-color:#3b1414;stop-opacity:1;" offset="0.769531"/><stop style="stop-color:#3a1414;stop-opacity:1;" offset="0.773438"/><stop style="stop-color:#391313;stop-opacity:1;" offset="0.777344"/><stop style="stop-color:#381313;stop-opacity:1;" offset="0.78125"/><stop style="stop-color:#371313;stop-opacity:1;" offset="0.785156"/><stop style="stop-color:#361212;stop-opacity:1;" offset="0.789062"/><stop style="stop-color:#351212;stop-opacity:1;" offset="0.792969"/><stop style="stop-color:#341212;stop-opacity:1;" offset="0.796875"/><stop style="stop-color:#331111;stop-opacity:1;" offset="0.800781"/><stop style="stop-color:#321111;stop-opacity:1;" offset="0.804688"/><stop style="stop-color:#311111;stop-opacity:1;" offset="0.808594"/><stop style="stop-color:#301010;stop-opacity:1;" offset="0.8125"/><stop style="stop-color:#2f1010;stop-opacity:1;" offset="0.816406"/><stop style="stop-color:#2e1010;stop-opacity:1;" offset="0.820312"/><stop style="stop-color:#2d0f0f;stop-opacity:1;" offset="0.824219"/><stop style="stop-color:#2c0f0f;stop-opacity:1;" offset="0.828125"/><stop style="stop-color:#2b0f0f;stop-opacity:1;" offset="0.832031"/><stop style="stop-color:#2a0e0e;stop-opacity:1;" offset="0.835938"/><stop style="stop-color:#290e0e;stop-opacity:1;" offset="0.839844"/><stop style="stop-color:#280e0e;stop-opacity:1;" offset="0.84375"/><stop style="stop-color:#270d0d;stop-opacity:1;" offset="0.847656"/><stop style="stop-color:#260d0d;stop-opacity:1;" offset="0.851562"/><stop style="stop-color:#250d0d;stop-opacity:1;" offset="0.855469"/><stop style="stop-color:#240c0c;stop-opacity:1;" offset="0.859375"/><stop style="stop-color:#230c0c;stop-opacity:1;" offset="0.863281"/><stop style="stop-color:#220c0c;stop-opacity:1;" offset="0.867188"/><stop style="stop-color:#210b0b;stop-opacity:1;" offset="0.871094"/><stop style="stop-color:#200b0b;stop-opacity:1;" offset="0.875"/><stop style="stop-color:#1f0b0b;stop-opacity:1;" offset="0.878906"/><stop style="stop-color:#1e0a0a;stop-opacity:1;" offset="0.882812"/><stop style="stop-color:#1d0a0a;stop-opacity:1;" offset="0.886719"/><stop style="stop-color:#1c0a0a;stop-opacity:1;" offset="0.890625"/><stop style="stop-color:#1b0909;stop-opacity:1;" offset="0.894531"/><stop style="stop-color:#1a0909;stop-opacity:1;" offset="0.898438"/><stop style="stop-color:#190909;stop-opacity:1;" offset="0.902344"/><stop style="stop-color:#180808;stop-opacity:1;" offset="0.90625"/><stop style="stop-color:#170808;stop-opacity:1;" offset="0.910156"/><stop style="stop-color:#160808;stop-opacity:1;" offset="0.914062"/><stop style="stop-color:#150707;stop-opacity:1;" offset="0.917969"/><stop style="stop-color:#140707;stop-opacity:1;" offset="0.921875"/><stop style="stop-color:#130707;stop-opacity:1;" offset="0.925781"/><stop style="stop-color:#120606;stop-opacity:1;" offset="0.929688"/><stop style="stop-color:#110606;stop-opacity:1;" offset="0.933594"/><stop style="stop-color:#100606;stop-opacity:1;" offset="0.9375"/><stop style="stop-color:#0f0505;stop-opacity:1;" offset="0.941406"/><stop style="stop-color:#0e0505;stop-opacity:1;" offset="0.945312"/><stop style="stop-color:#0d0505;stop-opacity:1;" offset="0.949219"/><stop style="stop-color:#0c0404;stop-opacity:1;" offset="0.953125"/><stop style="stop-color:#0b0404;stop-opacity:1;" offset="0.957031"/><stop style="stop-color:#0a0303;stop-opacity:1;" offset="0.960938"/><stop style="stop-color:#090303;stop-opacity:1;" offset="0.964844"/><stop style="stop-color:#080303;stop-opacity:1;" offset="0.96875"/><stop style="stop-color:#070202;stop-opacity:1;" offset="0.972656"/><stop style="stop-color:#060202;stop-opacity:1;" offset="0.976562"/><stop style="stop-color:#050202;stop-opacity:1;" offset="0.980469"/><stop style="stop-color:#040101;stop-opacity:1;" offset="0.984375"/><stop style="stop-color:#030101;stop-opacity:1;" offset="0.988281"/><stop style="stop-color:#020101;stop-opacity:1;" offset="0.992188"/><stop style="stop-color:#010000;stop-opacity:1;" offset="0.996094"/><stop style="stop-color:#000000;stop-opacity:1;" offset="1"/></linearGradient></defs><g id="dd4d40c1f2"><rect x="0" width="960" y="0" height="299.999988" style="fill:#ffffff;fill-opacity:1;stroke:none;"/><rect x="0" width="960" y="0" height="299.999988" style="fill:#ffffff;fill-opacity:1;stroke:none;"/><rect x="0" width="960" y="0" height="299.999988" style="fill:#37393d;fill-opacity:1;stroke:none;"/><g mask="url(#e3e7df14fc)" transform="matrix(1,0,0,1,630,0)"><g clip-path="url(#49163be7d5)"><g clip-rule="nonzero" clip-path="url(#c6bb882568)"><path style=" stroke:none;fill-rule:nonzero;fill:#ff5959;fill-opacity:1;" d="M 68.84375 194.792969 C 44.300781 194.792969 24.40625 174.898438 24.40625 150.355469 C 24.40625 125.8125 44.300781 105.917969 68.84375 105.917969 C 93.386719 105.917969 113.28125 125.8125 113.28125 150.355469 C 113.28125 174.898438 93.386719 194.792969 68.84375 194.792969 Z M 120.835938 164.25 C 121.640625 161.234375 124.003906 158.882812 127.03125 158.125 L 136.003906 155.882812 C 136.15625 154.058594 136.230469 152.21875 136.230469 150.355469 C 136.230469 148.511719 136.15625 146.683594 136.011719 144.878906 L 127.039062 142.628906 C 124.011719 141.871094 121.648438 139.519531 120.847656 136.5 C 120.839844 136.464844 120.828125 136.425781 120.820312 136.390625 C 120.011719 133.375 120.878906 130.160156 123.121094 127.992188 L 129.78125 121.550781 C 128.203125 118.21875 126.359375 115.035156 124.277344 112.027344 L 115.367188 114.570312 C 112.363281 115.429688 109.144531 114.570312 106.941406 112.359375 C 106.914062 112.335938 106.890625 112.3125 106.871094 112.289062 C 104.660156 110.082031 103.804688 106.863281 104.664062 103.863281 L 107.210938 94.949219 C 104.207031 92.867188 101.027344 91.019531 97.695312 89.441406 L 91.25 96.09375 C 89.078125 98.335938 85.863281 99.203125 82.847656 98.390625 C 82.8125 98.378906 82.777344 98.371094 82.738281 98.363281 C 79.722656 97.558594 77.371094 95.195312 76.613281 92.167969 L 74.371094 83.191406 C 72.546875 83.042969 70.703125 82.96875 68.84375 82.96875 C 67 82.96875 65.171875 83.042969 63.367188 83.1875 L 61.117188 92.160156 C 60.359375 95.1875 58.003906 97.550781 54.988281 98.351562 C 54.953125 98.359375 54.914062 98.371094 54.878906 98.378906 C 51.863281 99.1875 48.648438 98.320312 46.476562 96.078125 L 40.039062 89.417969 C 36.707031 90.996094 33.523438 92.839844 30.515625 94.921875 L 33.058594 103.832031 C 33.917969 106.835938 33.058594 110.054688 30.847656 112.257812 C 30.824219 112.28125 30.800781 112.308594 30.777344 112.332031 C 28.570312 114.539062 25.351562 115.394531 22.351562 114.535156 L 13.4375 111.984375 C 11.355469 114.992188 9.507812 118.171875 7.925781 121.503906 L 14.582031 127.949219 C 16.824219 130.117188 17.6875 133.335938 16.878906 136.351562 C 16.871094 136.386719 16.859375 136.425781 16.847656 136.460938 C 16.046875 139.476562 13.683594 141.828125 10.65625 142.585938 L 1.679688 144.828125 C 1.53125 146.652344 1.457031 148.492188 1.457031 150.355469 C 1.457031 152.199219 1.53125 154.027344 1.675781 155.832031 L 10.648438 158.082031 C 13.675781 158.839844 16.035156 161.195312 16.839844 164.210938 C 16.847656 164.246094 16.859375 164.285156 16.867188 164.320312 C 17.675781 167.335938 16.808594 170.550781 14.566406 172.722656 L 7.90625 179.15625 C 9.484375 182.492188 11.328125 185.675781 13.410156 188.683594 L 22.324219 186.140625 C 25.324219 185.285156 28.542969 186.140625 30.746094 188.351562 C 30.769531 188.375 30.792969 188.398438 30.816406 188.421875 C 33.027344 190.628906 33.882812 193.847656 33.023438 196.847656 L 30.472656 205.761719 C 33.476562 207.84375 36.660156 209.691406 39.992188 211.273438 L 46.4375 204.617188 C 48.609375 202.375 51.824219 201.511719 54.839844 202.320312 C 54.875 202.328125 54.910156 202.339844 54.949219 202.347656 C 57.964844 203.152344 60.316406 205.515625 61.074219 208.542969 L 63.316406 217.519531 C 65.140625 217.664062 66.980469 217.742188 68.84375 217.742188 C 70.6875 217.742188 72.511719 217.667969 74.320312 217.523438 L 76.570312 208.550781 C 77.328125 205.523438 79.679688 203.164062 82.699219 202.359375 C 82.734375 202.351562 82.769531 202.339844 82.808594 202.332031 C 85.824219 201.523438 89.039062 202.390625 91.207031 204.632812 L 97.648438 211.292969 C 100.980469 209.714844 104.164062 207.871094 107.171875 205.789062 L 104.625 196.875 C 103.769531 193.875 104.628906 190.65625 106.839844 188.453125 C 106.863281 188.429688 106.886719 188.40625 106.910156 188.382812 C 109.117188 186.171875 112.335938 185.316406 115.335938 186.175781 L 124.25 188.726562 C 126.332031 185.71875 128.179688 182.539062 129.757812 179.203125 L 123.105469 172.761719 C 120.863281 170.589844 119.996094 167.375 120.808594 164.359375 C 120.820312 164.324219 120.828125 164.285156 120.835938 164.25 "/></g><path style=" stroke:none;fill-rule:nonzero;fill:#ff5959;fill-opacity:1;" d="M 175.707031 117.558594 C 152.96875 117.558594 134.539062 99.128906 134.539062 76.394531 C 134.539062 53.660156 152.96875 35.230469 175.707031 35.230469 C 198.441406 35.230469 216.871094 53.660156 216.871094 76.394531 C 216.871094 99.128906 198.441406 117.558594 175.707031 117.558594 Z M 223.871094 89.269531 C 224.617188 86.472656 226.804688 84.296875 229.609375 83.59375 L 237.921875 81.515625 C 238.058594 79.828125 238.128906 78.121094 238.128906 76.394531 C 238.128906 74.6875 238.0625 72.996094 237.925781 71.324219 L 229.613281 69.238281 C 226.808594 68.535156 224.625 66.355469 223.882812 63.5625 C 223.871094 63.527344 223.863281 63.496094 223.855469 63.460938 C 223.105469 60.667969 223.90625 57.6875 225.988281 55.675781 L 232.15625 49.714844 C 230.691406 46.625 228.984375 43.675781 227.058594 40.890625 L 218.800781 43.246094 C 216.019531 44.042969 213.039062 43.246094 210.996094 41.199219 C 210.976562 41.175781 210.953125 41.15625 210.929688 41.132812 C 208.886719 39.089844 208.089844 36.105469 208.886719 33.328125 L 211.25 25.070312 C 208.464844 23.140625 205.519531 21.429688 202.433594 19.96875 L 196.460938 26.128906 C 194.449219 28.207031 191.472656 29.007812 188.679688 28.257812 C 188.644531 28.25 188.609375 28.238281 188.578125 28.230469 C 185.785156 27.484375 183.605469 25.296875 182.902344 22.492188 L 180.824219 14.179688 C 179.136719 14.042969 177.429688 13.972656 175.707031 13.972656 C 173.996094 13.972656 172.304688 14.039062 170.632812 14.175781 L 168.550781 22.488281 C 167.847656 25.292969 165.667969 27.476562 162.871094 28.21875 C 162.835938 28.230469 162.804688 28.238281 162.769531 28.25 C 159.976562 28.996094 156.996094 28.195312 154.988281 26.113281 L 149.023438 19.945312 C 145.933594 21.40625 142.984375 23.113281 140.203125 25.042969 L 142.558594 33.300781 C 143.351562 36.082031 142.554688 39.0625 140.507812 41.105469 C 140.484375 41.128906 140.464844 41.148438 140.441406 41.171875 C 138.398438 43.214844 135.414062 44.007812 132.636719 43.214844 L 124.382812 40.851562 C 122.449219 43.636719 120.742188 46.582031 119.277344 49.671875 L 125.441406 55.640625 C 127.519531 57.652344 128.320312 60.628906 127.566406 63.421875 C 127.558594 63.457031 127.550781 63.488281 127.539062 63.523438 C 126.796875 66.316406 124.609375 68.496094 121.800781 69.199219 L 113.488281 71.277344 C 113.351562 72.964844 113.28125 74.671875 113.28125 76.394531 C 113.28125 78.105469 113.351562 79.796875 113.484375 81.46875 L 121.796875 83.554688 C 124.601562 84.253906 126.789062 86.433594 127.53125 89.230469 C 127.539062 89.265625 127.550781 89.296875 127.558594 89.332031 C 128.304688 92.125 127.503906 95.105469 125.425781 97.113281 L 119.253906 103.078125 C 120.71875 106.167969 122.425781 109.117188 124.355469 111.902344 L 132.609375 109.542969 C 135.390625 108.75 138.371094 109.546875 140.414062 111.59375 C 140.4375 111.617188 140.457031 111.636719 140.480469 111.660156 C 142.527344 113.703125 143.320312 116.683594 142.523438 119.464844 L 140.160156 127.71875 C 142.945312 129.652344 145.894531 131.359375 148.980469 132.824219 L 154.949219 126.660156 C 156.960938 124.582031 159.941406 123.78125 162.730469 124.535156 C 162.765625 124.542969 162.800781 124.550781 162.835938 124.558594 C 165.628906 125.304688 167.808594 127.492188 168.507812 130.300781 L 170.585938 138.613281 C 172.273438 138.75 173.980469 138.820312 175.707031 138.820312 C 177.414062 138.820312 179.105469 138.75 180.777344 138.617188 L 182.863281 130.304688 C 183.566406 127.5 185.746094 125.3125 188.539062 124.570312 C 188.574219 124.5625 188.609375 124.554688 188.640625 124.542969 C 191.433594 123.792969 194.414062 124.597656 196.425781 126.675781 L 202.386719 132.847656 C 205.476562 131.382812 208.425781 129.675781 211.210938 127.746094 L 208.855469 119.492188 C 208.058594 116.710938 208.855469 113.726562 210.902344 111.6875 C 210.925781 111.664062 210.945312 111.644531 210.96875 111.621094 C 213.011719 109.574219 215.996094 108.78125 218.777344 109.578125 L 227.03125 111.941406 C 228.960938 109.15625 230.671875 106.207031 232.136719 103.121094 L 225.96875 97.152344 C 223.894531 95.140625 223.09375 92.160156 223.84375 89.367188 C 223.855469 89.335938 223.863281 89.300781 223.871094 89.269531 "/><g clip-rule="nonzero" clip-path="url(#113fa675e1)"><path style=" stroke:none;fill-rule:nonzero;fill:#ff5959;fill-opacity:1;" d="M 191.894531 287.667969 C 179.078125 287.667969 168.683594 277.277344 168.683594 264.457031 C 168.683594 251.640625 179.078125 241.246094 191.894531 241.246094 C 204.714844 241.246094 215.105469 251.640625 215.105469 264.457031 C 215.105469 277.277344 204.714844 287.667969 191.894531 287.667969 Z M 219.054688 271.714844 C 219.472656 270.140625 220.707031 268.914062 222.289062 268.515625 L 226.976562 267.34375 C 227.054688 266.390625 227.09375 265.429688 227.09375 264.457031 C 227.09375 263.492188 227.054688 262.542969 226.976562 261.597656 L 222.292969 260.421875 C 220.710938 260.027344 219.476562 258.796875 219.058594 257.222656 C 219.054688 257.203125 219.050781 257.183594 219.042969 257.164062 C 218.621094 255.589844 219.074219 253.910156 220.246094 252.777344 L 223.726562 249.414062 C 222.902344 247.671875 221.9375 246.007812 220.851562 244.4375 L 216.195312 245.765625 C 214.625 246.214844 212.945312 245.765625 211.792969 244.613281 C 211.78125 244.597656 211.769531 244.585938 211.757812 244.574219 C 210.605469 243.421875 210.15625 241.742188 210.605469 240.171875 L 211.9375 235.519531 C 210.367188 234.429688 208.707031 233.464844 206.964844 232.640625 L 203.597656 236.117188 C 202.464844 237.289062 200.785156 237.738281 199.210938 237.316406 C 199.191406 237.308594 199.171875 237.304688 199.152344 237.300781 C 197.578125 236.878906 196.351562 235.644531 195.953125 234.066406 L 194.78125 229.378906 C 193.832031 229.300781 192.867188 229.257812 191.894531 229.257812 C 190.933594 229.257812 189.980469 229.296875 189.035156 229.375 L 187.859375 234.0625 C 187.464844 235.644531 186.234375 236.875 184.660156 237.296875 C 184.640625 237.300781 184.621094 237.304688 184.601562 237.308594 C 183.027344 237.730469 181.347656 237.277344 180.214844 236.109375 L 176.851562 232.628906 C 175.109375 233.453125 173.445312 234.414062 171.875 235.503906 L 173.203125 240.160156 C 173.652344 241.726562 173.203125 243.40625 172.050781 244.558594 C 172.039062 244.570312 172.023438 244.582031 172.011719 244.597656 C 170.859375 245.75 169.179688 246.199219 167.609375 245.75 L 162.957031 244.417969 C 161.867188 245.984375 160.90625 247.648438 160.078125 249.386719 L 163.554688 252.753906 C 164.726562 253.890625 165.175781 255.570312 164.753906 257.144531 C 164.746094 257.164062 164.742188 257.183594 164.738281 257.199219 C 164.316406 258.777344 163.082031 260.003906 161.5 260.398438 L 156.816406 261.570312 C 156.738281 262.523438 156.695312 263.484375 156.695312 264.457031 C 156.695312 265.421875 156.738281 266.375 156.8125 267.320312 L 161.5 268.492188 C 163.082031 268.890625 164.3125 270.117188 164.734375 271.695312 C 164.738281 271.714844 164.742188 271.734375 164.746094 271.753906 C 165.171875 273.328125 164.71875 275.007812 163.546875 276.140625 L 160.066406 279.5 C 160.890625 281.242188 161.855469 282.90625 162.941406 284.476562 L 167.597656 283.148438 C 169.164062 282.699219 170.84375 283.148438 171.996094 284.304688 C 172.007812 284.316406 172.019531 284.328125 172.035156 284.339844 C 173.1875 285.492188 173.636719 287.175781 173.1875 288.742188 L 171.855469 293.394531 C 173.421875 294.484375 175.085938 295.449219 176.824219 296.273438 L 180.191406 292.800781 C 181.324219 291.628906 183.007812 291.175781 184.582031 291.601562 C 184.601562 291.605469 184.617188 291.609375 184.636719 291.613281 C 186.214844 292.035156 187.441406 293.269531 187.839844 294.851562 L 189.007812 299.539062 C 189.960938 299.617188 190.921875 299.65625 191.894531 299.65625 C 192.859375 299.65625 193.8125 299.617188 194.757812 299.539062 L 195.929688 294.855469 C 196.328125 293.273438 197.558594 292.039062 199.132812 291.621094 C 199.152344 291.617188 199.171875 291.609375 199.191406 291.605469 C 200.765625 291.183594 202.445312 291.636719 203.578125 292.808594 L 206.941406 296.285156 C 208.679688 295.464844 210.34375 294.5 211.914062 293.410156 L 210.585938 288.757812 C 210.140625 287.1875 210.585938 285.507812 211.742188 284.355469 C 211.753906 284.34375 211.765625 284.332031 211.777344 284.320312 C 212.929688 283.164062 214.613281 282.71875 216.179688 283.167969 L 220.835938 284.5 C 221.921875 282.929688 222.886719 281.269531 223.714844 279.527344 L 220.238281 276.160156 C 219.066406 275.027344 218.613281 273.347656 219.039062 271.773438 C 219.042969 271.753906 219.050781 271.734375 219.054688 271.714844 "/></g><g clip-rule="nonzero" clip-path="url(#588d2dcadf)"><path style=" stroke:none;fill-rule:nonzero;fill:#ff5959;fill-opacity:1;" d="M 250.503906 222.582031 C 225.960938 222.582031 206.066406 202.6875 206.066406 178.144531 C 206.066406 153.601562 225.960938 133.707031 250.503906 133.707031 C 275.042969 133.707031 294.941406 153.601562 294.941406 178.144531 C 294.941406 202.6875 275.042969 222.582031 250.503906 222.582031 Z M 302.496094 192.042969 C 303.300781 189.023438 305.664062 186.671875 308.691406 185.914062 L 317.667969 183.671875 C 317.8125 181.851562 317.890625 180.007812 317.890625 178.144531 C 317.890625 176.300781 317.816406 174.476562 317.671875 172.671875 L 308.699219 170.421875 C 305.667969 169.660156 303.308594 167.308594 302.507812 164.289062 C 302.5 164.253906 302.488281 164.21875 302.480469 164.179688 C 301.667969 161.167969 302.535156 157.949219 304.78125 155.78125 L 311.441406 149.34375 C 309.863281 146.007812 308.019531 142.824219 305.9375 139.820312 L 297.023438 142.363281 C 294.023438 143.21875 290.800781 142.359375 288.601562 140.152344 C 288.574219 140.125 288.550781 140.101562 288.527344 140.078125 C 286.320312 137.871094 285.464844 134.652344 286.320312 131.652344 L 288.871094 122.742188 C 285.867188 120.65625 282.683594 118.8125 279.351562 117.230469 L 272.910156 123.886719 C 270.738281 126.128906 267.519531 126.992188 264.507812 126.179688 C 264.472656 126.171875 264.433594 126.160156 264.398438 126.152344 C 261.382812 125.347656 259.027344 122.984375 258.273438 119.957031 L 256.03125 110.984375 C 254.207031 110.835938 252.363281 110.757812 250.503906 110.757812 C 248.660156 110.757812 246.832031 110.835938 245.027344 110.980469 L 242.777344 119.953125 C 242.019531 122.980469 239.664062 125.339844 236.648438 126.140625 C 236.609375 126.152344 236.574219 126.160156 236.539062 126.171875 C 233.523438 126.976562 230.304688 126.113281 228.136719 123.867188 L 221.699219 117.207031 C 218.363281 118.785156 215.183594 120.628906 212.175781 122.710938 L 214.71875 131.625 C 215.574219 134.628906 214.714844 137.84375 212.507812 140.050781 C 212.480469 140.074219 212.460938 140.097656 212.4375 140.121094 C 210.230469 142.328125 207.011719 143.183594 204.007812 142.324219 L 195.097656 139.777344 C 193.015625 142.78125 191.167969 145.964844 189.585938 149.296875 L 196.242188 155.738281 C 198.484375 157.910156 199.347656 161.125 198.539062 164.140625 C 198.527344 164.179688 198.519531 164.214844 198.507812 164.25 C 197.703125 167.269531 195.34375 169.617188 192.3125 170.375 L 183.339844 172.617188 C 183.191406 174.441406 183.113281 176.285156 183.113281 178.144531 C 183.113281 179.988281 183.191406 181.816406 183.335938 183.621094 L 192.308594 185.871094 C 195.335938 186.628906 197.695312 188.984375 198.496094 192 C 198.507812 192.039062 198.515625 192.074219 198.527344 192.109375 C 199.335938 195.125 198.46875 198.339844 196.226562 200.511719 L 189.566406 206.949219 C 191.144531 210.28125 192.984375 213.46875 195.070312 216.472656 L 203.980469 213.929688 C 206.980469 213.074219 210.203125 213.933594 212.40625 216.140625 C 212.429688 216.164062 212.453125 216.191406 212.476562 216.214844 C 214.683594 218.417969 215.542969 221.636719 214.683594 224.640625 L 212.132812 233.550781 C 215.136719 235.632812 218.320312 237.480469 221.652344 239.0625 L 228.097656 232.40625 C 230.265625 230.164062 233.484375 229.300781 236.5 230.109375 C 236.535156 230.121094 236.570312 230.128906 236.605469 230.140625 C 239.625 230.945312 241.976562 233.304688 242.730469 236.332031 L 244.972656 245.308594 C 246.796875 245.457031 248.640625 245.535156 250.503906 245.535156 C 252.347656 245.535156 254.171875 245.457031 255.980469 245.3125 L 258.230469 236.339844 C 258.988281 233.3125 261.339844 230.953125 264.355469 230.148438 C 264.394531 230.140625 264.429688 230.132812 264.464844 230.121094 C 267.484375 229.3125 270.699219 230.179688 272.867188 232.425781 L 279.304688 239.085938 C 282.640625 237.503906 285.824219 235.660156 288.832031 233.582031 L 286.289062 224.667969 C 285.429688 221.664062 286.289062 218.449219 288.5 216.242188 C 288.523438 216.21875 288.546875 216.195312 288.570312 216.171875 C 290.777344 213.964844 293.996094 213.105469 296.996094 213.964844 L 305.90625 216.515625 C 307.992188 213.511719 309.835938 210.328125 311.417969 206.996094 L 304.765625 200.554688 C 302.523438 198.382812 301.65625 195.164062 302.46875 192.152344 C 302.476562 192.113281 302.488281 192.078125 302.496094 192.042969 "/></g><path style=" stroke:none;fill-rule:nonzero;fill:#ff5959;fill-opacity:1;" d="M 54.191406 68.070312 C 39.25 68.070312 27.140625 55.960938 27.140625 41.019531 C 27.140625 26.082031 39.25 13.972656 54.191406 13.972656 C 69.128906 13.972656 81.238281 26.082031 81.238281 41.019531 C 81.238281 55.960938 69.128906 68.070312 54.191406 68.070312 Z M 85.839844 49.480469 C 86.328125 47.644531 87.765625 46.210938 89.609375 45.75 L 95.074219 44.386719 C 95.164062 43.277344 95.210938 42.152344 95.210938 41.019531 C 95.210938 39.898438 95.164062 38.785156 95.074219 37.6875 L 89.613281 36.316406 C 87.773438 35.855469 86.335938 34.421875 85.847656 32.585938 C 85.839844 32.566406 85.835938 32.542969 85.828125 32.519531 C 85.335938 30.683594 85.863281 28.726562 87.230469 27.40625 L 91.285156 23.488281 C 90.324219 21.457031 89.203125 19.519531 87.933594 17.691406 L 82.507812 19.238281 C 80.683594 19.757812 78.722656 19.238281 77.378906 17.890625 C 77.367188 17.878906 77.351562 17.863281 77.335938 17.847656 C 75.992188 16.507812 75.472656 14.546875 75.996094 12.71875 L 77.546875 7.296875 C 75.71875 6.027344 73.78125 4.902344 71.75 3.941406 L 67.828125 7.992188 C 66.507812 9.355469 64.550781 9.882812 62.714844 9.390625 C 62.691406 9.382812 62.667969 9.378906 62.648438 9.371094 C 60.8125 8.878906 59.378906 7.441406 58.917969 5.597656 L 57.554688 0.136719 C 56.445312 0.046875 55.324219 0 54.191406 0 C 53.066406 0 51.957031 0.046875 50.855469 0.132812 L 49.488281 5.597656 C 49.023438 7.441406 47.59375 8.875 45.757812 9.363281 C 45.734375 9.371094 45.710938 9.375 45.6875 9.382812 C 43.855469 9.875 41.898438 9.347656 40.574219 7.980469 L 36.65625 3.925781 C 34.628906 4.886719 32.6875 6.011719 30.859375 7.277344 L 32.40625 12.703125 C 32.929688 14.53125 32.40625 16.488281 31.058594 17.832031 C 31.046875 17.84375 31.03125 17.859375 31.019531 17.875 C 29.671875 19.21875 27.714844 19.738281 25.886719 19.21875 L 20.464844 17.664062 C 19.195312 19.492188 18.070312 21.429688 17.109375 23.460938 L 21.160156 27.378906 C 22.523438 28.703125 23.050781 30.660156 22.554688 32.496094 C 22.550781 32.519531 22.542969 32.539062 22.539062 32.5625 C 22.050781 34.398438 20.613281 35.832031 18.769531 36.289062 L 13.304688 37.65625 C 13.214844 38.765625 13.167969 39.886719 13.167969 41.019531 C 13.167969 42.144531 13.214844 43.253906 13.304688 44.355469 L 18.765625 45.722656 C 20.609375 46.1875 22.046875 47.617188 22.53125 49.457031 C 22.539062 49.476562 22.542969 49.5 22.550781 49.519531 C 23.042969 51.359375 22.515625 53.316406 21.148438 54.636719 L 17.09375 58.554688 C 18.054688 60.585938 19.175781 62.523438 20.445312 64.351562 L 25.871094 62.804688 C 27.695312 62.28125 29.65625 62.804688 31 64.148438 C 31.011719 64.164062 31.027344 64.179688 31.042969 64.195312 C 32.386719 65.535156 32.90625 67.496094 32.386719 69.324219 L 30.832031 74.746094 C 32.660156 76.015625 34.601562 77.140625 36.628906 78.101562 L 40.550781 74.050781 C 41.871094 72.6875 43.828125 72.160156 45.664062 72.652344 C 45.6875 72.660156 45.710938 72.664062 45.730469 72.671875 C 47.566406 73.160156 49 74.597656 49.460938 76.441406 L 50.824219 81.90625 C 51.933594 81.996094 53.054688 82.042969 54.191406 82.042969 C 55.3125 82.042969 56.421875 81.996094 57.523438 81.90625 L 58.890625 76.445312 C 59.355469 74.601562 60.785156 73.167969 62.625 72.679688 C 62.644531 72.671875 62.667969 72.667969 62.691406 72.660156 C 64.523438 72.167969 66.484375 72.695312 67.804688 74.0625 L 71.722656 78.117188 C 73.75 77.15625 75.691406 76.03125 77.519531 74.765625 L 75.972656 69.339844 C 75.449219 67.511719 75.972656 65.554688 77.320312 64.210938 C 77.332031 64.195312 77.347656 64.183594 77.363281 64.167969 C 78.707031 62.824219 80.664062 62.300781 82.492188 62.824219 L 87.917969 64.378906 C 89.1875 62.550781 90.308594 60.613281 91.269531 58.582031 L 87.21875 54.660156 C 85.855469 53.339844 85.328125 51.378906 85.824219 49.546875 C 85.828125 49.523438 85.835938 49.503906 85.839844 49.480469 "/></g><mask id="e3e7df14fc"><g filter="url(#57d19f8be6)"><rect x="0" width="960" y="0" height="299.999988" style="fill:#000000;fill-opacity:0.2;stroke:none;"/></g></mask></g><path style="fill:none;stroke-width:13;stroke-linecap:round;stroke-linejoin:miter;stroke:url(#a64b2d2a15);stroke-miterlimit:4;" d="M 258.353795 238.880724 L 258.353795 122.651003 C 258.353795 109.949299 248.055515 99.652311 235.350655 99.652311 L 29.49964 99.652311 C 16.79999 99.652311 6.50171 89.355324 6.50171 76.648404 L 6.50171 29.498217 C 6.50171 16.796513 16.79999 6.499526 29.49964 6.499526 L 573.037374 6.499526 C 585.737024 6.499526 596.035305 16.796513 596.035305 29.498217 L 596.035305 76.648404 C 596.035305 89.355324 606.333585 99.652311 619.033235 99.652311 L 795.61463 99.652311 " transform="matrix(0.749898,0,0,0.748854,359.163446,115.964837)"/></g></svg>